Coordinates
version=1
nRows=32
nColumns=12
inDegrees=yes

Units are S.I. units (second, meters, Newtons, ...)
Angles are in degrees

endheader
time	SC_y	SC_z	SC_x	AC_y	AC_z	AC_x	GH_y	GH_z	GH_yy	EL_x	PS_y
       0.0              -24.82         -4.757          52.36          45.78          7.449          3.331         -176.2          43.84         -46.37          13.29          136.6
  0.007973              -24.82         -4.753          52.36          45.78          7.445           3.33         -176.2          43.84         -46.38          13.29          136.6
   0.01595              -24.82         -4.749          52.36          45.78          7.442          3.328         -176.1          43.84         -46.39           13.3          136.6
   0.02392              -24.83         -4.744          52.35          45.79          7.438          3.327         -176.1          43.84          -46.4          13.31          136.6
   0.03189              -24.83         -4.739          52.35          45.79          7.434          3.325         -176.1          43.84         -46.41          13.32          136.6
   0.03987              -24.83         -4.734          52.34           45.8          7.429          3.323         -176.1          43.84         -46.42          13.33          136.6
   0.04784              -24.83         -4.728          52.34           45.8          7.424          3.321         -176.1          43.84         -46.44          13.34          136.6
   0.05581              -24.83         -4.722          52.33           45.8          7.419          3.319         -176.0          43.84         -46.45          13.35          136.6
   0.06379              -24.83         -4.715          52.33          45.81          7.414          3.317         -176.0          43.84         -46.47          13.36          136.6
   0.07176              -24.83         -4.708          52.32          45.81          7.408          3.314         -176.0          43.84         -46.48          13.37          136.5
   0.07973              -24.83         -4.701          52.32          45.82          7.401          3.312         -175.9          43.84          -46.5          13.38          136.5
   0.08771              -24.83         -4.692          52.31          45.83          7.395          3.309         -175.9          43.84         -46.52           13.4          136.5
   0.09568              -24.83         -4.684          52.31          45.83          7.387          3.306         -175.9          43.84         -46.54          13.41          136.5
    0.1037              -24.83         -4.674           52.3          45.84          7.379          3.302         -175.8          43.84         -46.56          13.43          136.5
    0.1116              -24.84         -4.664          52.29          45.85          7.371          3.299         -175.8          43.84         -46.59          13.45          136.5
    0.1196              -24.84         -4.653          52.28          45.86          7.362          3.295         -175.7          43.84         -46.62          13.47          136.5
    0.1276              -24.84         -4.641          52.27          45.87          7.351          3.291         -175.7          43.84         -46.64          13.49          136.5
    0.1355              -24.84         -4.627          52.26          45.88           7.34          3.286         -175.6          43.83         -46.68          13.51          136.5
    0.1435              -24.84         -4.613          52.25          45.89          7.328          3.281         -175.6          43.83         -46.71          13.53          136.5
    0.1515              -24.84         -4.597          52.24           45.9          7.315          3.276         -175.5          43.83         -46.75          13.56          136.5
    0.1595              -24.85          -4.58          52.23          45.91          7.301           3.27         -175.4          43.83         -46.79          13.59          136.4
    0.1674              -24.85         -4.561          52.21          45.93          7.285          3.263         -175.3          43.83         -46.83          13.62          136.4
    0.1754              -24.85          -4.54           52.2          45.94          7.267          3.256         -175.3          43.83         -46.88          13.66          136.4
    0.1834              -24.85         -4.517          52.18          45.96          7.248          3.248         -175.2          43.83         -46.94           13.7          136.4
    0.1914              -24.86         -4.491          52.16          45.98          7.226          3.239         -175.0          43.83          -47.0          13.74          136.4
    0.1993              -24.86         -4.462          52.14           46.0          7.202          3.229         -174.9          43.82         -47.07          13.79          136.4
    0.2073              -24.87          -4.43          52.11          46.03          7.175          3.218         -174.8          43.82         -47.15          13.85          136.3
    0.2153              -24.87         -4.393          52.08          46.06          7.145          3.206         -174.6          43.82         -47.24          13.91          136.3
    0.2233              -24.88         -4.352          52.05          46.09           7.11          3.191         -174.4          43.82         -47.33          13.98          136.3
    0.2312              -24.88         -4.305          52.02          46.12          7.071          3.175         -174.2          43.81         -47.45          14.06          136.2
    0.2392              -24.89         -4.252          51.98          46.16          7.027          3.157         -174.0          43.81         -47.57          14.15          136.2
    0.2472               -24.9         -4.191          51.93          46.21          6.976          3.136         -173.8           43.8         -47.72          14.26          136.2
